#!OML:ASF F:\VICON\USERDATA\INSTALL\rory3\rory3.ASF
:FULLY-SPECIFIED
:DEGREES
1930
root 10.3133 17.9424 -9.7764 760.024 82.2161 -676.283
lowerback 10.084 0.806008 -6.08461
upperback 0.967468 0.400513 -0.758872
thorax -4.6847 0.329025 2.5748
lowerneck -18.171 -5.90502 -11.8287
upperneck 34.9746 -6.66773 7.82516
head 16.3079 -2.97276 4.29432
rclavicle -1.11071e-014 -7.95139e-016
rhumerus -37.3238 -13.12 -80.8477
rradius 30.2109
rwrist 5.74397
rhand -14.9062 9.69108
rfingers 7.12502
rthumb 11.2552 -19.987
lclavicle -1.11071e-014 -7.95139e-016
lhumerus -29.4807 2.40188 83.4403
lradius 34.0385
lwrist -4.33837
lhand -17.7136 25.7005
lfingers 7.12502
lthumb 8.5467 55.5076
rfemur -23.3808 -12.93 22.2402
rtibia 25.8467
rfoot -1.38063 -23.9988
rtoes 26.9411
lfemur 11.6735 0.606476 -27.8784
ltibia 7.59793
lfoot -7.02083 -1.24874
ltoes -8.57319
1931
root 10.4055 17.9253 -9.76003 759.296 81.8931 -676.955
lowerback 10.1445 0.920837 -6.06465
upperback 0.880248 0.540171 -0.902073
thorax -4.82139 0.401717 2.39254
lowerneck -18.0869 -5.96695 -11.6098
upperneck 35.0819 -6.79082 7.67173
head 16.3401 -3.01466 4.16835
rclavicle -1.44616e-014 -1.07344e-014
rhumerus -37.5926 -13.3181 -80.9239
rradius 30.3703
rwrist 5.70663
rhand -14.9381 9.31704
rfingers 7.12502
rthumb 11.2245 -20.3627
lclavicle -1.44616e-014 -1.07344e-014
lhumerus -29.655 1.92259 83.4654
lradius 34.191
lwrist -4.18308
lhand -17.909 26.0004
lfingers 7.12502
lthumb 8.35814 55.8151
rfemur -22.9681 -12.2308 21.9923
rtibia 25.9754
rfoot -2.46205 -24.5636
rtoes 26.3446
lfemur 11.512 0.699767 -28.0021
ltibia 8.72956
lfoot -7.45874 -1.1681
ltoes -8.78123
1932
root 10.4965 17.9227 -9.7454 759.001 81.553 -677.158
lowerback 10.1692 1.00896 -6.09294
upperback 0.867224 0.645803 -1.05867
thorax -4.85663 0.454928 2.22864
lowerneck -18.1027 -6.02103 -11.4401
upperneck 35.1539 -6.93008 7.65911
head 16.3901 -3.0499 4.10861
rclavicle -4.93856e-015 -2.48481e-015
rhumerus -37.6649 -13.6517 -80.9367
rradius 30.3794
rwrist 5.90093
rhand -15.0612 9.3521
rfingers 7.12502
rthumb 11.1057 -20.334
lclavicle -4.93856e-015 -2.48481e-015
lhumerus -29.733 1.51352 83.4602
lradius 34.3262
lwrist -3.96055
lhand -17.7964 26.0963
lfingers 7.12502
lthumb 8.46686 55.9066
rfemur -22.5442 -11.8181 21.7251
rtibia 26.1103
rfoot -2.62261 -24.4822
rtoes 25.1137
lfemur 11.325 0.771215 -28.1768
ltibia 9.96307
lfoot -7.86847 -1.21632
ltoes -8.90151
1933
root 10.5904 17.9177 -9.73022 758.807 81.2497 -677.298
lowerback 10.1004 0.995544 -6.14188
upperback 0.844414 0.622465 -1.16231
thorax -4.83959 0.443807 2.15132
lowerneck -18.0599 -5.99471 -11.3773
upperneck 35.1763 -6.93656 7.70336
head 16.3902 -3.03863 4.118
rclavicle 1.98536e-014 -2.34566e-014
rhumerus -37.6662 -13.8085 -80.9694
rradius 30.3147
rwrist 6.20025
rhand -15.101 9.56354
rfingers 7.12502
rthumb 11.0673 -20.1247
lclavicle 1.98536e-014 -2.34566e-014
lhumerus -29.8402 1.67881 83.3954
lradius 34.3987
lwrist -3.98737
lhand -17.5896 26.0451
lfingers 7.12502
lthumb 8.66638 55.8472
rfemur -22.1581 -11.0619 21.3586
rtibia 26.2843
rfoot -2.7549 -24.2076
rtoes 25.2956
lfemur 11.1255 0.808258 -28.355
ltibia 11.0983
lfoot -8.13574 -1.181
ltoes -10.6201
1934
root 10.6842 17.9089 -9.71289 758.205 81.0606 -677.878
lowerback 10.0089 0.923819 -6.15392
upperback 0.82645 0.532496 -1.12867
thorax -4.80026 0.39877 2.20695
lowerneck -18.0841 -5.92375 -11.5188
upperneck 35.2032 -6.79517 7.74892
head 16.4002 -2.99415 4.19302
rclavicle 5.14977e-015 -2.18663e-014
rhumerus -37.6435 -13.6639 -80.9993
rradius 30.3347
rwrist 6.30407
rhand -15.2158 9.51492
rfingers 7.12502
rthumb 10.9567 -20.1792
lclavicle 5.14977e-015 -2.18663e-014
lhumerus -30.0091 2.06161 83.4279
lradius 34.5367
lwrist -4.20967
lhand -17.4582 26.0973
lfingers 7.12502
lthumb 8.79317 55.8941
rfemur -21.798 -10.2401 21.1128
rtibia 26.47
rfoot -3.31427 -24.1155
rtoes 26.2841
lfemur 10.9023 0.926077 -28.3522
ltibia 12.1716
lfoot -8.30818 -1.2646
ltoes -12.2051
1935
root 10.7773 17.9077 -9.69646 757.423 80.9421 -678.627
lowerback 9.90577 0.842867 -6.0932
upperback 0.856838 0.443151 -1.06295
thorax -4.70301 0.35044 2.25549
lowerneck -18.1988 -5.85717 -11.6775
upperneck 35.1898 -6.64292 7.78431
head 16.4099 -2.94882 4.2654
rclavicle -1.02126e-014 -3.97569e-016
rhumerus -37.523 -13.4635 -81.011
rradius 30.3266
rwrist 6.15124
rhand -15.1321 9.59851
rfingers 7.12502
rthumb 11.0373 -20.0913
lclavicle -1.02126e-014 -3.97569e-016
lhumerus -30.2107 1.97726 83.6094
lradius 34.7985
lwrist -3.74313
lhand -17.5898 26.3048
lfingers 7.12502
lthumb 8.66623 56.107
rfemur -21.4231 -9.96413 21.0882
rtibia 26.6113
rfoot -3.95596 -24.0546
rtoes 26.6386
lfemur 10.6187 0.990009 -28.2864
ltibia 13.3814
lfoot -8.50023 -1.35196
ltoes -13.8948
1936
root 10.8739 17.909 -9.67586 756.202 80.789 -679.805
lowerback 9.91831 0.902692 -5.82322
upperback 0.766811 0.542698 -1.1303
thorax -4.8099 0.397181 2.01879
lowerneck -18.0624 -5.90356 -11.6992
upperneck 35.1791 -6.73037 7.81217
head 16.3867 -2.98543 4.26498
rclavicle 1.48964e-014 8.94531e-015
rhumerus -37.7285 -13.6948 -80.9476
rradius 30.3734
rwrist 6.05414
rhand -14.9828 9.70915
rfingers 7.12502
rthumb 11.1813 -19.9729
lclavicle 1.48964e-014 8.94531e-015
lhumerus -30.4904 1.44774 83.7699
lradius 34.9039
lwrist -3.00355
lhand -17.4052 26.1645
lfingers 7.12502
lthumb 8.84433 55.9592
rfemur -21.1108 -10.0945 21.2219
rtibia 26.7603
rfoot -4.32303 -23.8198
rtoes 26.1578
lfemur 10.3642 0.884514 -28.2291
ltibia 14.6325
lfoot -8.59698 -1.24719
ltoes -15.9231
